<?xml version="1.0" encoding="UTF-8"?>
<svg width="32px" height="32px" viewBox="0 0 32 32" version="1.1" xmlns="http://www.w3.org/2000/svg" xmlns:xlink="http://www.w3.org/1999/xlink">
    <title>紧急告警</title>
    <g id="页面-1" stroke="none" stroke-width="1" fill="none" fill-rule="evenodd">
        <g id="画板" transform="translate(-394, -56)" fill-rule="nonzero">
            <g id="紧急告警" transform="translate(394, 56)">
                <rect id="矩形" fill="#000000" opacity="0" x="0" y="0" width="32" height="32"></rect>
                <path d="M29.5,28 L26,28 L26,17 C26,11.4771525 21.5228475,7 16,7 C10.4771525,7 6,11.4771525 6,17 L6,28 L2.5,28 C2.22385763,28 2,28.2238576 2,28.5 L2,30.5 C2,30.7761424 2.22385763,31 2.5,31 L29.5,31 C29.7761424,31 30,30.7761424 30,30.5 L30,28.5 C30,28.2238576 29.7761424,28 29.5,28 Z M14.5,1 L17.5,1 L17.5,5 L14.5,5 L14.5,1 Z M6.7028125,3.894875 L9.30090625,2.394875 L11.3009063,5.8589375 L8.7028125,7.3589375 L6.7028125,3.894875 Z M1.390625,10.2980625 L2.890625,7.69996875 L6.35475,9.69996875 L4.85475,12.2980625 L1.390625,10.2980625 L1.390625,10.2980625 Z M25.6450625,9.69878125 L29.109125,7.69878125 L30.609125,10.296875 L27.1450625,12.296875 L25.6450625,9.69878125 Z M20.6979688,5.855875 L22.6979688,2.3918125 L25.2960625,3.8918125 L23.2960625,7.355875 L20.6979688,5.855875 Z" id="形状" fill="#EF7A59"></path>
                <path d="M19.96,16.5 L16.785,16.5 L17.38,12.345 C17.3925078,12.2367013 17.3333953,12.1327847 17.2339148,12.08819 C17.1344343,12.0435953 17.0175268,12.0686063 16.945,12.15 L11.85,18.09 C11.7881608,18.1642365 11.7746345,18.2674609 11.8152588,18.355124 C11.8558832,18.442787 11.9433848,18.4991936 12.04,18.5 L15.215,18.5 L14.62,22.655 C14.6074922,22.7632987 14.6666047,22.8672153 14.7660852,22.91181 C14.8655657,22.9564047 14.9824732,22.9313937 15.055,22.85 L20.15,16.91 C20.2118392,16.8357635 20.2253655,16.7325391 20.1847412,16.644876 C20.1441168,16.557213 20.0566152,16.5008064 19.96,16.5 L19.96,16.5 Z" id="路径" fill="#FFFFFF"></path>
            </g>
        </g>
    </g>
</svg>