<?xml version="1.0" encoding="UTF-8"?>
<svg width="32px" height="32px" viewBox="0 0 32 32" version="1.1" xmlns="http://www.w3.org/2000/svg" xmlns:xlink="http://www.w3.org/1999/xlink">
    <title>考勤</title>
    <g id="页面-1" stroke="none" stroke-width="1" fill="none" fill-rule="evenodd">
        <g id="画板" transform="translate(-288, -56)" fill-rule="nonzero">
            <g id="考勤" transform="translate(288, 56)">
                <rect id="矩形" fill="#000000" opacity="0" x="0" y="0" width="31.9999458" height="31.9999458"></rect>
                <path d="M29.6837935,12.4970726 C30.0386824,13.4804634 30.2853362,14.4996039 30.419386,15.5364425 L30.4986046,16.1200977 L27.0906104,16.2445975 L27.0194543,15.7692858 C26.9141519,15.0560789 26.7375918,14.3552297 26.4924239,13.6772581 L26.3129555,13.1776964 L29.5010751,11.9878235 L29.6853873,12.4986976 L29.6837935,12.4970726 Z M18.0774694,17.7465325 C18.0787246,18.4981267 17.5984321,19.1660237 16.8855252,19.4040557 C16.1726183,19.6420878 15.3874002,19.3967313 14.9368456,18.7951533 C14.486291,18.1935753 14.471711,17.3710459 14.9006623,16.7538779 C13.6047266,15.0092976 12.5026475,13.1287656 11.6139178,11.1455436 L12.4885414,10.6605445 C13.7662988,12.3601101 14.8859492,14.1729691 15.8335045,16.0764728 C16.2532739,15.9501714 16.7052084,15.9865422 17.0993773,16.1783476 C17.9829064,15.098186 18.9936611,14.1286883 20.1096847,13.290915 C20.3861217,13.5512271 20.6593713,13.8131016 20.9358083,14.0734137 C20.1238686,15.303678 19.1523831,16.4208496 18.0467507,17.3957206 C18.0693296,17.5107452 18.0807057,17.6276877 18.0807194,17.7449075 L18.0774694,17.7465325 Z M16.9975337,24.4445211 L16.9975337,27.3351412 L15.9951604,27.3351412 L15.9951604,24.4445211 L16.9975337,24.4445211 Z M20.7935273,11.2829809 L22.8386488,9.23785937 L23.5419289,9.94273317 L21.4919324,11.9894797 L20.7886836,11.2845747 L20.7935273,11.2829809 Z M21.9640253,21.6993695 L24.0091469,23.7460848 L23.3042731,24.4493649 L21.2607453,22.4042433 L21.9640253,21.6993695 L21.9640253,21.6993695 Z M23.5354602,17.2453458 L23.5354602,16.2510975 L26.4260803,16.2510975 L26.4260803,17.2453458 L23.5354602,17.2453458 Z M27.5400159,8.58629797 C28.1229051,9.34294743 28.6297628,10.1552302 29.0532321,11.0113564 L29.3167629,11.5432305 L26.1221745,12.7380097 L25.9039249,12.3144167 C25.6036349,11.7360141 25.2536414,11.1848054 24.8578954,10.6670132 L24.534646,10.2449827 L27.2151102,8.14326747 L27.5384534,8.57654799 L27.5400159,8.58629797 Z M24.3212088,5.51458442 C25.0210947,6.00330924 25.6777241,6.55122698 26.2838618,7.1523004 C26.3533929,7.22505027 26.4245178,7.2962064 26.4940489,7.36895628 L26.9046732,7.8006118 L24.2193653,9.90229574 L23.8766158,9.56117132 C23.3806342,9.06552333 22.8393705,8.61736306 22.2598998,8.22254858 L21.7749006,7.89920538 L23.8992408,5.22680365 L24.3147401,5.51617816 L24.3212088,5.51458442 Z M29.8454495,21.9127754 C27.6434707,28.7432776 20.7900505,32.9481205 13.7031323,31.8167221 C6.61621423,30.6853236 1.41266153,24.5556326 1.44669047,17.3790525 C1.48105454,10.2024724 6.74278576,4.12264867 13.8401641,3.05883857 L13.8401641,0.00646873905 L22.0416502,4.76114819 L13.8336641,9.48192145 L13.8336641,6.50561399 C8.51060851,7.55726815 4.71801741,12.288958 4.85037612,17.7132901 C4.98273482,23.1376221 9.00159014,27.6787055 14.3696029,28.4694877 C19.7376156,29.2602699 24.8952568,26.0710109 26.586205,20.9152771 L26.747861,20.4189342 L30.0087305,21.3889326 L29.8470745,21.9111192 L29.8454495,21.9127754 Z M8.8057351,16.9106589 L8.8057351,17.9049384 L5.91345874,17.9049384 L5.91345874,16.9106589 L8.8057351,16.9106589 Z M8.3336734,10.4099199 L9.04339095,9.70504608 L11.08045,11.7501676 L10.3787949,12.4550414 L8.3336734,10.4099199 L8.3336734,10.4099199 Z M10.8427942,22.1681812 L11.547668,22.87143 L9.50254642,24.9149266 L8.79767261,24.2116778 L10.8427942,22.1681812 Z M30.2528551,20.3606843 L30.1348553,20.9362458 L26.8691108,19.9662475 L26.9580169,19.4893108 C27.084348,18.8170718 27.1487531,18.1346623 27.1504228,17.450658 L27.1504228,17.2485646 L27.1407353,16.721503 L30.5357921,16.5986282 L30.5471046,17.145096 L30.5471046,17.452283 C30.5464003,18.4295193 30.4489248,19.4042843 30.256105,20.3623093 L30.2528551,20.3606843 Z" id="形状" fill="#30A46C"></path>
            </g>
        </g>
    </g>
</svg>